<?xml version="1.0" encoding="utf-8"?>
<svg viewBox="0 0 32 32" width="32" height="32" fill="#000000" xmlns="http://www.w3.org/2000/svg">
  <g>
    <path d="M8.2,9.6c0.2,0.2,0.5,0.3,0.7,0.3s0.5-0.1,0.7-0.3c0.4-0.4,0.4-1,0-1.4L7.5,6.1c-0.4-0.4-1-0.4-1.4,0s-0.4,1,0,1.4L8.2,9.6 z"/>
    <path d="M7,16c0-0.6-0.4-1-1-1H3c-0.6,0-1,0.4-1,1s0.4,1,1,1h3C6.6,17,7,16.6,7,16z"/>
    <path d="M8.2,22.4l-2.1,2.1c-0.4,0.4-0.4,1,0,1.4c0.2,0.2,0.5,0.3,0.7,0.3s0.5-0.1,0.7-0.3l2.1-2.1c0.4-0.4,0.4-1,0-1.4 S8.6,22,8.2,22.4z"/>
  </g>
  <path d="M 17 29 L 17 3 C 17 2.4 16.6 2 16 2 C 15.4 2 15 2.4 15 3 L 15 8.1 C 11.1 8.6 8 12 8 16 C 8 20 11.1 23.4 15 23.9 L 15 29 C 15 29.6 15.4 30 16 30 C 16.6 30 17 29.6 17 29 Z M 17 20 C 17 20.6 17 11.4 17 12 L 17 20 Z"/>
</svg>