<?xml version="1.0" encoding="utf-8"?>
<svg viewBox="0 0 32 32" width="32" height="32" fill="#000000" xmlns="http://www.w3.org/2000/svg">
  <g/>
  <path d="M 29.4 16.2 C 29 16 28.5 16.1 28.2 16.5 C 27.4 17.5 26.2 18 25 18 C 22.7 18 20.7 16.1 20.7 13.7 C 20.7 12.1 21.6 10.7 23 9.9 C 23.4 9.7 23.6 9.2 23.5 8.8 C 23.4 8.4 23 8 22.5 8 C 22.4 8 22.2 8 22.1 8 C 20.2 8 18.4 8.7 17 9.8 L 17 3 C 17 2.4 16.6 2 16 2 C 15.4 2 15 2.4 15 3 L 15 29 C 15 29.6 15.4 30 16 30 C 16.6 30 17 29.6 17 29 L 17 22.2 C 18.4 23.4 20.2 24 22.1 24 C 26.1 24 29.4 21.1 30 17.2 C 30.1 16.8 29.8 16.3 29.4 16.2 Z M 15 12 C 15 11.4 15 20.6 15 20 L 15 12 Z"/>
</svg>