<?xml version="1.0" encoding="utf-8"?>
<svg viewBox="0 0 20 20" width="20" height="20" xmlns="http://www.w3.org/2000/svg">
  <path fill-rule="evenodd" d="M 10.637 14.544 C 11.453 14.544 12.116 15.206 12.116 16.023 C 12.116 16.841 11.453 17.503 10.637 17.503 C 9.819 17.503 9.156 16.841 9.156 16.023 C 9.156 15.206 9.819 14.544 10.637 14.544 Z M 6.005 12.324 C 7.028 12.324 7.855 13.152 7.855 14.173 C 7.855 15.195 7.028 16.023 6.005 16.023 C 4.983 16.023 4.155 15.195 4.155 14.173 C 4.155 13.152 4.983 12.324 6.005 12.324 Z M 14.572 12.693 C 15.39 12.693 16.052 13.356 16.052 14.173 C 16.052 14.991 15.39 15.653 14.572 15.653 C 13.754 15.653 13.091 14.991 13.091 14.173 C 13.091 13.356 13.754 12.693 14.572 12.693 Z M 16.185 9.6 C 16.799 9.6 17.295 10.097 17.295 10.709 C 17.295 11.323 16.799 11.819 16.185 11.819 C 15.572 11.819 15.076 11.323 15.076 10.709 C 15.076 10.097 15.572 9.6 16.185 9.6 Z M 4.347 7.144 C 5.367 7.144 6.197 7.972 6.197 8.995 C 6.197 10.015 5.367 10.844 4.347 10.844 C 3.324 10.844 2.497 10.015 2.497 8.995 C 2.497 7.972 3.324 7.144 4.347 7.144 Z M 15.656 6.558 C 16.066 6.558 16.398 6.888 16.398 7.297 C 16.398 7.706 16.066 8.038 15.656 8.038 C 15.247 8.038 14.917 7.706 14.917 7.297 C 14.917 6.888 15.247 6.558 15.656 6.558 Z M 8.416 2.705 C 9.641 2.705 10.637 3.698 10.637 4.924 C 10.637 6.151 9.641 7.144 8.416 7.144 C 7.191 7.144 6.197 6.151 6.197 4.924 C 6.197 3.698 7.191 2.705 8.416 2.705 Z M 13.965 4.924 C 14.169 4.924 14.335 5.09 14.335 5.294 C 14.335 5.499 14.169 5.665 13.965 5.665 C 13.76 5.665 13.596 5.499 13.596 5.294 C 13.596 5.09 13.76 4.924 13.965 4.924 Z" style=""/>
</svg>