<?xml version="1.0" encoding="utf-8"?>
<svg viewBox="0 0 1920 1920" width="1920" height="1920" fill="#000000" xmlns="http://www.w3.org/2000/svg">
  <path d="M 743 865.683 L 1021.045 1143.726 C 1064.257 1186.938 1088.059 1244.433 1088.059 1305.498 C 1088.059 1366.655 1064.257 1424.149 1021.045 1467.362 L 1007.677 1480.73 L 405.907 879.049 L 419.273 865.683 C 505.79 779.074 656.575 779.074 743.001 865.683 L 743 865.683 Z M 1018.755 551.659 L 1335.25 868.155 L 1103.258 1100.147 C 1097.308 1093.189 1092.363 1085.5 1085.771 1078.999 L 807.726 800.956 C 803.875 797.049 799.606 793.819 795.317 790.615 L 793.71 789.414 C 791.299 787.61 788.898 785.79 786.58 783.837 L 1018.755 551.659 Z M 1102.067 304.836 L 1582.073 784.752 L 1514.053 852.773 C 1496.199 870.626 1467.177 870.626 1449.324 852.773 L 1432.754 836.203 C 1432.571 836.019 1432.571 835.837 1432.387 835.653 C 1432.203 835.562 1432.02 835.562 1431.928 835.379 L 1051.622 455.072 C 1051.439 454.89 1051.347 454.614 1051.165 454.432 C 1050.982 454.248 1050.707 454.156 1050.524 454.065 L 1034.045 437.585 C 1016.192 419.733 1016.192 390.62 1034.045 372.767 L 1102.067 304.836 Z M 1102.067 175.38 L 969.317 308.04 C 921.251 356.104 918.78 430.261 957.141 483.82 L 716.083 724.876 C 712.788 728.08 710.866 732.017 708.761 735.862 C 591.573 687.156 447.014 708.58 354.545 800.956 L 276.452 879.05 L 609.702 1212.299 L 195.428 1626.571 C 177.484 1644.423 177.484 1673.445 195.428 1691.299 C 204.309 1700.27 216.028 1704.757 227.746 1704.757 C 239.464 1704.757 251.183 1700.27 260.156 1691.298 L 674.429 1277.025 L 1007.677 1610.183 L 1085.771 1532.089 C 1146.287 1471.666 1179.611 1391.191 1179.611 1305.498 C 1179.611 1260.821 1170.092 1217.701 1152.787 1177.967 C 1154.892 1176.409 1157.366 1175.494 1159.286 1173.572 L 1403.09 929.768 C 1426.895 946.707 1453.718 957.693 1481.641 957.693 C 1516.798 957.693 1552.045 944.234 1578.777 917.501 L 1711.529 784.752 L 1102.067 175.38 Z" fill-rule="evenodd" style=""/>
</svg>