<?xml version="1.0" encoding="utf-8"?>
<svg viewBox="0 0 1920 1920" width="1920" height="1920" fill="#000000" xmlns="http://www.w3.org/2000/svg">
  <path d="M 692.08 851.622 L 1035.083 1194.624 C 1088.392 1247.932 1117.756 1318.859 1117.756 1394.191 C 1117.756 1469.636 1088.392 1540.563 1035.083 1593.871 L 1018.593 1610.361 L 276.232 868.111 L 292.721 851.621 C 399.451 744.779 585.464 744.779 692.081 851.621 L 692.08 851.622 Z M 1032.26 464.233 L 1422.697 854.671 L 1136.504 1140.864 C 1129.164 1132.28 1123.064 1122.794 1114.933 1114.774 L 771.93 771.773 C 767.178 766.954 761.911 762.968 756.621 759.016 L 754.638 757.534 C 751.664 755.309 748.702 753.063 745.841 750.654 L 1032.26 464.234 L 1032.26 464.233 Z M 1135.036 159.744 L 1727.186 751.782 L 1643.272 835.697 C 1621.248 857.72 1585.446 857.72 1563.422 835.697 L 1542.98 815.255 C 1542.754 815.029 1542.754 814.803 1542.528 814.577 C 1542.302 814.464 1542.076 814.464 1541.963 814.238 L 1072.806 345.08 C 1072.58 344.855 1072.466 344.516 1072.241 344.29 C 1072.015 344.064 1071.676 343.951 1071.451 343.838 L 1051.121 323.508 C 1029.097 301.485 1029.097 265.57 1051.121 243.546 L 1135.036 159.744 Z M 1135.036 0.045 L 971.272 163.697 C 911.977 222.991 908.928 314.473 956.25 380.544 L 658.876 677.918 C 654.81 681.871 652.439 686.728 649.841 691.471 C 505.276 631.386 326.942 657.815 212.871 771.772 L 116.533 868.112 L 527.639 1279.217 L 607.488 1359.066 L 1018.594 1770.059 L 1114.933 1673.72 C 1189.587 1599.18 1230.697 1499.904 1230.697 1394.191 C 1230.697 1339.076 1218.952 1285.881 1197.606 1236.864 C 1200.203 1234.944 1203.253 1233.814 1205.624 1231.443 L 1506.387 930.68 C 1535.752 951.575 1568.843 965.128 1603.29 965.128 C 1646.66 965.128 1690.142 948.525 1723.12 915.546 L 1886.886 751.782 L 1135.036 0.045 Z" fill-rule="evenodd"/>
</svg>