<?xml version="1.0" encoding="utf-8"?>
<svg viewBox="0 0 1920 1920" width="1920" height="1920" fill="#000000" xmlns="http://www.w3.org/2000/svg">
  <path d="M 742.942 865.704 L 1021.011 1143.773 C 1064.227 1186.988 1088.033 1244.488 1088.033 1305.557 C 1088.033 1366.72 1064.227 1424.22 1021.011 1467.436 L 1007.64 1480.803 L 405.819 879.074 L 419.187 865.703 C 505.709 779.087 656.51 779.087 742.942 865.703 L 742.942 865.704 Z M 1018.721 551.653 L 1335.245 868.177 L 1103.232 1100.19 C 1097.28 1093.23 1092.334 1085.54 1085.742 1079.039 L 807.674 800.972 C 803.824 797.065 799.553 793.833 795.264 790.63 L 793.656 789.429 C 791.244 787.625 788.844 785.805 786.524 783.849 L 1018.721 551.653 Z M 1102.041 304.806 L 1582.089 784.766 L 1514.061 852.794 C 1496.206 870.647 1467.181 870.647 1449.327 852.794 L 1432.755 836.222 C 1432.571 836.038 1432.571 835.856 1432.39 835.673 C 1432.206 835.58 1432.022 835.58 1431.931 835.396 L 1051.591 455.056 C 1051.409 454.876 1051.316 454.599 1051.134 454.416 C 1050.95 454.234 1050.675 454.141 1050.492 454.052 L 1034.011 437.569 C 1016.157 419.715 1016.157 390.599 1034.011 372.745 L 1102.041 304.806 Z M 1102.041 175.341 L 969.279 308.011 C 921.209 356.081 918.737 430.245 957.102 483.808 L 716.024 724.885 C 712.728 728.091 710.805 732.027 708.698 735.872 C 591.503 687.161 446.928 708.588 354.452 800.972 L 276.353 879.074 L 609.631 1212.351 L 674.363 1277.085 L 1007.641 1610.271 L 1085.742 1532.169 C 1146.264 1471.74 1179.592 1391.258 1179.592 1305.557 C 1179.592 1260.877 1170.071 1217.752 1152.766 1178.014 C 1154.87 1176.459 1157.344 1175.543 1159.266 1173.62 L 1403.089 929.795 C 1426.897 946.735 1453.723 957.722 1481.648 957.722 C 1516.809 957.722 1552.058 944.261 1578.793 917.528 L 1711.557 784.766 L 1102.041 175.341 Z" fill-rule="evenodd" style=""/>
</svg>