<?xml version="1.0" encoding="utf-8"?>
<svg viewBox="0 0 511.53 511.53" width="511.53" height="511.53" fill="#000000" xmlns="http://www.w3.org/2000/svg">
  <g style="" transform="matrix(0.809247, 0, 0, 0.809247, 48.601851, 49.106856)">
    <g>
      <path d="M 402.859 309.994 C 399.232 302.763 391.851 298.197 383.765 298.197 L 319.765 298.197 L 319.765 212.864 L 191.764 212.864 L 191.764 298.197 L 127.764 298.197 C 119.679 298.197 112.297 302.762 108.671 309.994 C 105.087 317.226 105.855 325.866 110.698 332.33 L 238.698 502.997 C 242.73 508.373 249.066 511.53 255.765 511.53 C 262.464 511.53 268.8 508.373 272.832 502.997 L 400.832 332.33 C 405.675 325.866 406.443 317.226 402.859 309.994 Z"/>
    </g>
  </g>
</svg>